<svg version="1.1" xmlns="http://www.w3.org/2000/svg" xmlns:xlink="http://www.w3.org/1999/xlink" width="334.80218" height="357.36206" viewBox="0,0,334.80218,357.36206"><g transform="translate(-68.60903,-2.62126)"><g data-paper-data="{&quot;isPaintingLayer&quot;:true}" fill-rule="nonzero" stroke="none" stroke-width="1" stroke-linecap="butt" stroke-linejoin="miter" stroke-miterlimit="10" stroke-dasharray="" stroke-dashoffset="0" style="mix-blend-mode: normal"><path d="M91.76012,266.01058c-24.08559,-43.01811 -29.32938,-95.56602 -15.95799,-143.50944c22.96577,-82.05992 107.32967,-133.07831 191.73361,-116.88839c85.60917,16.32278 149.8492,110.90091 133.25122,225.79618c-88.63648,30.12122 -165.55189,12.88022 -258.8005,-31.55189c31.5637,111.46938 208.40405,99.48561 235.43153,102.00995c-7.21239,35.58745 -64.55691,53.27146 -101.33061,56.92511c-45.41908,4.5457 -132.12283,0.44811 -184.32725,-92.78152z" fill="#eb611e"/><path d="M211.1393,97.89945c29.28044,-6.52653 59.53471,3.49473 67.64371,20.56485c8.07155,17.07011 -9.10156,36.17216 -38.36327,42.70805c-29.28044,6.52653 -61.03496,-0.55041 -69.12524,-17.62052c-8.08091,-17.06075 10.57373,-39.14458 39.8448,-45.65238z" fill="#ffffff"/><path d="M202.95962,122.24052c4.89683,-9.83163 18.8492,-14.08314 29.34512,-9.50897c10.47695,4.59315 15.02265,16.29431 10.13531,26.11644c-4.89683,9.83163 -17.35719,14.09263 -27.84362,9.51846c-10.48644,-4.58366 -16.50517,-16.28482 -11.63681,-26.12593z" fill="#eb611e"/><path d="M324.54048,154.05158c-21.26576,-8.45467 -27.30859,-25.95799 -15.60543,-36.96196c11.70316,-11.02549 36.69908,-11.41037 57.96484,-2.96645c21.28727,8.45467 29.01049,24.24533 17.32885,35.26006c-11.71391,11.04701 -38.45477,13.14454 -59.68825,4.66835z" fill="#ffffff"/><path d="M332.35061,126.85997c3.90171,-7.58047 15.56472,-10.85791 23.90324,-7.31293c8.32737,3.53384 10.16431,12.55237 6.29603,20.0994c-3.89057,7.59162 -13.77863,10.88021 -22.11715,7.33522c-8.37197,-3.53384 -11.96154,-12.55237 -8.08212,-20.1217z" fill="#eb611e"/></g></g></svg>